<svg xmlns="http://www.w3.org/2000/svg" viewBox="0 0 209.2 93.3" width="209" height="93">
  <g fill="#1a1a17">
        <g transform="translate(44.63 52.20) scale(0.06 -0.06)"><path d="M65.26264445111156 0V660H282.1167544424534L456.64238484576344 164.3067438043654H460.7852681465447L632.3347923606634 660H839.1414809413254V0H703.0958077535033L709.6434340663254 514.0259690061212H701.2148713581264L511.7847609743476 0H388.2147115059197L201.7607523612678 514.1926560178399H193.33218965306878L199.7607523612678 0Z"></path></g>
    <g transform="translate(97.67 52.20) scale(0.06 -0.06)"><path d="M65.26264445111156 0V660H332.09453328326344Q383.2135736346245 660 426.0230632927269 651.82142566517Q468.83255295082927 643.6428513303399 502.3087041899562 627.6190381739289Q535.7848554290831 611.5952250175178 559.3443261962384 588.2499861959368Q582.9037969633937 564.9047473743558 595.0347239132971 534.1190418079495Q607.1656508632004 503.3333362415433 607.1656508632004 465.5238429494202Q607.1656508632004 431.8095354363322 596.4870939664543 403.6785459984094Q585.8085370697081 375.54755656048656 563.725254599005 354.02372887171805Q541.6419721283019 332.49990118294954 507.97538030333817 318.8808441180736Q474.3087884783745 305.2617870531976 428.61842418834567 299.5713442862034V287.04753766953945Q482.64161609113216 282.0951581709087 514.1295500211418 262.940553214401Q545.6174839511514 243.78594825789332 563.3199295718223 211.91699291951954Q581.0223751924932 180.04803758114576 593.2843569740653 135.47641864046454L631.1178152859211 0H472.0726332850754L443.2629467137158 125.04775275290012Q434.8105061799288 163.7859468087554 418.8341216985136 186.75037856958807Q402.8577372170985 209.71481033042073 377.1193869393319 219.8339792918414Q351.3810366615653 229.95314825326204 312.42840430513024 229.95314825326204H209.16527739167213V0ZM209.16527739167213 339.33267502859235H320.14233979582787Q386.47658429667354 339.33267502859235 422.1198526993394 364.57104928418994Q457.76312110200524 389.80942353978753 457.76312110200524 442.7147507444024Q457.76312110200524 496.04861595481634 424.6198316272348 521.8226812444627Q391.4765421524644 547.5967465341091 323.7137087844312 547.5967465341091H209.16527739167213Z"></path></g>
    <g transform="translate(6.00 83.32) scale(0.022 -0.022)"><path d="M139.5322304368019 0V104.41424802690744H332.51629251241684Q392.61113388091326 104.41424802690744 432.0711851604283 131.15603565052152Q471.5312364399433 157.8978232741356 491.07078843191266 207.86175004392862Q510.610340423882 257.82567681372166 510.610340423882 328Q510.610340423882 387.245676189661 498.3048577718437 430.05887930467725Q485.99937511980534 472.87208241969347 461.0471649207175 500.55045403167605Q436.0949547216296 528.2288256436586 398.14680675044656 541.9072888083756Q360.1986587792635 555.5857519730926 308.8974585160613 555.5857519730926H139.5322304368019V660H304.88146682083607Q422.12786235660315 660 496.73522101715207 621.0Q571.342579677701 582 606.6482127383351 509.33731054887176Q641.9538457989693 436.6746210977435 641.9538457989693 335.3571762815118Q641.9538457989693 262.8886176198721 625.1124483160675 207.51551213115454Q608.2710508331656 152.14240664243698 579.0804104283452 112.81705753132701Q549.8897700235248 73.49170842021704 511.0761127769947 48.37671576440334Q472.26245553046465 23.26172310858965 427.6512787826359 11.630861554294825Q383.0401020348072 0 336.1751064732671 0ZM77.56317477673292 0V660H203.91449362039566V0Z"></path></g>
    <g transform="translate(22.49 83.32) scale(0.022 -0.022)"><path d="M70.94409663975239 0.0V522.6511240154505H196.96210249513388V0.0ZM134.2626386359334 604.8968438059092Q95.49260011636898 604.8968438059092 75.23824390184723 621.0594224300431Q54.98388768732548 637.2220010541771 54.98388768732548 668.6085059255885Q54.98388768732548 700.1358896859158 75.31378966575147 716.4813965071077Q95.64369164417747 732.8269033282995 134.16259981114678 732.8269033282995Q173.51887554696327 732.8269033282995 193.8595090285993 716.4973430335522Q214.2001425102353 700.1677827388048 214.2001425102353 668.6805661934084Q214.2001425102353 637.5288129037148 193.79942537564784 621.212828354812Q173.39870824106038 604.8968438059092 134.2626386359334 604.8968438059092Z"></path></g>
    <g transform="translate(29.59 83.32) scale(0.022 -0.022)"><path d="M307.40527053177357 -13.341308109462261Q243.63530525565147 -13.341308109462261 194.32561359927058 4.714205786585808Q145.0159219428897 22.769719682633877 110.92449466884136 57.15064227208495Q76.83306739479303 91.53156486153603 59.07501487061381 140.67844427004457Q41.31696234643459 189.8253236785531 41.31696234643459 252.0159887894988Q41.31696234643459 313.89702981710434 58.58688838779926 365.87725418433547Q75.85681442916393 417.8574785515666 108.78949023038149 456.05193777009845Q141.72216603159904 494.2463969886303 189.52788991853595 515.1233815997839Q237.33361380547285 536.0003662109375 297.7543921098113 536.0003662109375Q354.8579087033868 536.0003662109375 400.02874586358666 517.1113881915808Q445.19958302378654 498.22241017222404 475.9774446040392 460.53576296940446Q506.75530618429184 422.8491157665849 521.6481865793467 367.42437114566565Q536.5410669744015 311.9996265247464 532.4457881897688 238.92015778273344L122.91370016336441 235.84081256389618V308.88909427821636L458.91305784881115 311.9446357861161L414.8248194158077 271.2145807221532Q420.7772744819522 327.66661435365677 406.0472041554749 364.1107705757022Q391.3171338289976 400.5549267977476 362.9125637486577 418.2412383072078Q334.5079936683178 435.92754981666803 298.73064798116684 435.92754981666803Q258.0087856724858 435.92754981666803 227.25106738880277 414.4197683185339Q196.4933491051197 392.91198682039976 179.59265596792102 352.4400329589844Q162.69196283072233 311.968079097569 162.69196283072233 254.1033320352435Q162.69196283072233 167.09570457786322 201.2513434998691 124.24685911089182Q239.81072416901588 81.39801364392042 307.4528169184923 81.39801364392042Q336.84154208004475 81.39801364392042 357.5159771665931 88.9376818947494Q378.1904122531414 96.47735014557838 392.1545540988445 108.88997347652912Q406.11869594454765 121.30259680747986 414.693984746933 137.3857862725854Q423.2692735493183 153.46897573769093 428.1184576153755 170.54808408021927L538.2869160994887 145.9682578444481Q529.5408838689327 109.27777438610792 511.5249873585999 79.9603019580245Q493.5090908482671 50.64282952994108 465.04077124223113 29.79361567273736Q436.5724516361952 8.944401815533638 397.6199369877577 -2.1984531469643116Q358.6674223393202 -13.341308109462261 307.40527053177357 -13.341308109462261Z"></path></g>
    <g transform="translate(43.46 83.32) scale(0.022 -0.022)"><path d="M70.6187177374959 0V319.18272083997726L70.60284956544638 522.6511240154505H176.38996329903603L172.96174354851246 362.9454510360956H191.39051116257906Q204.87464299052954 421.5324832946062 228.64450799673796 459.90934075042605Q252.41437300294638 498.2861982062459 288.96200803667307 517.1432822085917Q325.50964307039976 536.0003662109375 374.70806642621756 536.0003662109375Q463.98607478290796 536.0003662109375 510.3949475996196 472.90897308662534Q556.8038204163313 409.8175799623132 556.8038204163313 277.72959583997726V0H429.8096182718873V264.75308856368065Q429.8096182718873 349.7847420796752 404.42479475960135 389.3362170010805Q379.0399712473154 428.8876919224858 329.45288376510143 428.8876919224858Q286.87378849834204 428.8876919224858 257.73121109977365 402.3799743652344Q228.58863370120525 375.8722568079829 213.2634364515543 332.3805948868394Q197.93823920190334 288.88893296569586 196.6367235928774 236.92916578799486V0Z"></path></g>
    <g transform="translate(58.28 83.32) scale(0.022 -0.022)"><path d="M274.3018861785531 -13.341308109462261Q220.6987328901887 -13.341308109462261 178.3336188904941 -2.841367691755295Q135.96850489079952 7.658572725951672 105.76205371692777 27.404485791921616Q75.55560254305601 47.15039885789156 57.91653660312295 74.74146718531847Q40.27747066318989 102.33253551274538 36.126413494348526 136.16560871899128L134.7943313792348 172.85723731666803Q137.3898484930396 147.47686622291803 155.1557152122259 126.54058741033077Q172.92158193141222 105.60430859774351 204.98493327572942 93.62420630082488Q237.04828462004662 81.64410400390625 282.2068515345454 81.64410400390625Q332.4126553013921 81.64410400390625 359.9123501256108 97.29861377552152Q387.4120449498296 112.95312354713678 387.4120449498296 141.65112401545048Q387.4120449498296 163.2936381995678 371.9756774902344 175.7815525121987Q356.5393100306392 188.26946682482958 328.08713325485587 196.76147170364857Q299.63495647907257 205.25347658246756 259.93671041727066 212.95184326171875Q223.05578274279833 221.01532321423292 185.68267434835434 231.37247261032462Q148.30956595391035 241.72962200641632 116.54751441627741 259.2177811861038Q84.78546287864447 276.7059403657913 65.37662203237414 305.31717451661825Q45.96778118610382 333.9284086674452 45.96778118610382 377.5079922154546Q45.96778118610382 425.58740282803774 71.34876481071115 460.793824210763Q96.72974843531847 496.0002455934882 145.56324525550008 516.0003059022129Q194.3967420756817 536.0003662109375 263.29389541596174 536.0003662109375Q328.1511356383562 536.0003662109375 375.72269935905933 517.8139326311648Q423.29426307976246 499.6274990513921 452.9492582269013 466.41338336467743Q482.6042533740401 433.1992676779628 491.24749271571636 387.3185245618224L387.10314021259546 354.4922475665808Q384.2458433136344 382.0235581174493 368.1387295201421 401.45983765646815Q352.03161572664976 420.896117195487 325.2341630719602 430.93966602161527Q298.43671041727066 440.9832148477435 262.4766278937459 440.9832148477435Q216.24689253419638 440.9832148477435 190.1241525299847 424.97155713289976Q164.00141252577305 408.959899418056 164.00141252577305 381.6349492147565Q164.00141252577305 360.2781405970454 180.46558270975947 347.10766964778304Q196.9297528937459 333.93719869852066 226.23913792148232 325.9412260502577Q255.54852294921875 317.9452534019947 293.9135141521692 309.61193896085024Q333.78656005859375 301.6436767578125 371.2588496133685 291.32223365455866Q408.7311391681433 281.0007905513048 438.9137561134994 264.15551394596696Q469.09637305885553 247.3102373406291 486.79879615455866 219.7744707390666Q504.5012192502618 192.2387041375041 504.5012192502618 149.18304201215506Q504.5012192502618 97.28612990677357 476.8622732013464 60.813779316842556Q449.223327152431 24.341428726911545 397.7588510662317 5.500060308724642Q346.29437498003244 -13.341308109462261 274.3018861785531 -13.341308109462261Z"></path></g>
    <g transform="translate(71.33 83.32) scale(0.022 -0.022)"><path d="M254.151793949306 -11.6429443359375Q171.19079444557428 -11.6429443359375 131.97625587135553 32.66689918190241Q92.76171729713678 76.97674269974232 92.76171729713678 171.4855894073844V421.64166405051947H16.134706526994705L18.08715868741274 522.26231893152H69.19864860922098Q98.00036039948463 522.3892759308219 111.82983277365565 531.2939506396651Q125.65930514782667 540.1986253485084 129.0164843350649 563.2144557312131L140.78649757057428 639.3019486665726H213.86688329279423V522.6511240154505H351.9694872647524V418.32409861683846H213.86688329279423V175.95397658646107Q213.86688329279423 138.91448345035315 231.3866603784263 122.06929985061288Q248.9064374640584 105.22411625087261 283.7715463787317 105.22411625087261Q302.69219825416803 105.22411625087261 321.31512281671166 109.72805277630687Q339.9380473792553 114.23198930174112 355.5488935187459 125.18414064496756V5.309327624738216Q325.3106689453125 -4.97637939453125 299.72726295143366 -8.309661865234375Q274.1438569575548 -11.6429443359375 254.151793949306 -11.6429443359375Z"></path></g>
    <g transform="translate(81.09 83.32) scale(0.022 -0.022)"><path d="M70.6187177374959 0V709.849915035069H195.00965033471584V0Z"></path></g>
    <g transform="translate(88.14 83.32) scale(0.022 -0.022)"><path d="M307.40527053177357 -13.341308109462261Q243.63530525565147 -13.341308109462261 194.32561359927058 4.714205786585808Q145.0159219428897 22.769719682633877 110.92449466884136 57.15064227208495Q76.83306739479303 91.53156486153603 59.07501487061381 140.67844427004457Q41.31696234643459 189.8253236785531 41.31696234643459 252.0159887894988Q41.31696234643459 313.89702981710434 58.58688838779926 365.87725418433547Q75.85681442916393 417.8574785515666 108.78949023038149 456.05193777009845Q141.72216603159904 494.2463969886303 189.52788991853595 515.1233815997839Q237.33361380547285 536.0003662109375 297.7543921098113 536.0003662109375Q354.8579087033868 536.0003662109375 400.02874586358666 517.1113881915808Q445.19958302378654 498.22241017222404 475.9774446040392 460.53576296940446Q506.75530618429184 422.8491157665849 521.6481865793467 367.42437114566565Q536.5410669744015 311.9996265247464 532.4457881897688 238.92015778273344L122.91370016336441 235.84081256389618V308.88909427821636L458.91305784881115 311.9446357861161L414.8248194158077 271.2145807221532Q420.7772744819522 327.66661435365677 406.0472041554749 364.1107705757022Q391.3171338289976 400.5549267977476 362.9125637486577 418.2412383072078Q334.5079936683178 435.92754981666803 298.73064798116684 435.92754981666803Q258.0087856724858 435.92754981666803 227.25106738880277 414.4197683185339Q196.4933491051197 392.91198682039976 179.59265596792102 352.4400329589844Q162.69196283072233 311.968079097569 162.69196283072233 254.1033320352435Q162.69196283072233 167.09570457786322 201.2513434998691 124.24685911089182Q239.81072416901588 81.39801364392042 307.4528169184923 81.39801364392042Q336.84154208004475 81.39801364392042 357.5159771665931 88.9376818947494Q378.1904122531414 96.47735014557838 392.1545540988445 108.88997347652912Q406.11869594454765 121.30259680747986 414.693984746933 137.3857862725854Q423.2692735493183 153.46897573769093 428.1184576153755 170.54808408021927L538.2869160994887 145.9682578444481Q529.5408838689327 109.27777438610792 511.5249873585999 79.9603019580245Q493.5090908482671 50.64282952994108 465.04077124223113 29.79361567273736Q436.5724516361952 8.944401815533638 397.6199369877577 -2.1984531469643116Q358.6674223393202 -13.341308109462261 307.40527053177357 -13.341308109462261Z"></path></g>
    <g transform="translate(102.02 83.32) scale(0.022 -0.022)"><path d="M70.94409663975239 0.0V522.6511240154505H196.96210249513388V0.0ZM134.2626386359334 604.8968438059092Q95.49260011636898 604.8968438059092 75.23824390184723 621.0594224300431Q54.98388768732548 637.2220010541771 54.98388768732548 668.6085059255885Q54.98388768732548 700.1358896859158 75.31378966575147 716.4813965071077Q95.64369164417747 732.8269033282995 134.16259981114678 732.8269033282995Q173.51887554696327 732.8269033282995 193.8595090285993 716.4973430335522Q214.2001425102353 700.1677827388048 214.2001425102353 668.6805661934084Q214.2001425102353 637.5288129037148 193.79942537564784 621.212828354812Q173.39870824106038 604.8968438059092 134.2626386359334 604.8968438059092Z"></path></g>
    <g transform="translate(109.11 83.32) scale(0.022 -0.022)"><path d="M274.3018861785531 -13.341308109462261Q220.6987328901887 -13.341308109462261 178.3336188904941 -2.841367691755295Q135.96850489079952 7.658572725951672 105.76205371692777 27.404485791921616Q75.55560254305601 47.15039885789156 57.91653660312295 74.74146718531847Q40.27747066318989 102.33253551274538 36.126413494348526 136.16560871899128L134.7943313792348 172.85723731666803Q137.3898484930396 147.47686622291803 155.1557152122259 126.54058741033077Q172.92158193141222 105.60430859774351 204.98493327572942 93.62420630082488Q237.04828462004662 81.64410400390625 282.2068515345454 81.64410400390625Q332.4126553013921 81.64410400390625 359.9123501256108 97.29861377552152Q387.4120449498296 112.95312354713678 387.4120449498296 141.65112401545048Q387.4120449498296 163.2936381995678 371.9756774902344 175.7815525121987Q356.5393100306392 188.26946682482958 328.08713325485587 196.76147170364857Q299.63495647907257 205.25347658246756 259.93671041727066 212.95184326171875Q223.05578274279833 221.01532321423292 185.68267434835434 231.37247261032462Q148.30956595391035 241.72962200641632 116.54751441627741 259.2177811861038Q84.78546287864447 276.7059403657913 65.37662203237414 305.31717451661825Q45.96778118610382 333.9284086674452 45.96778118610382 377.5079922154546Q45.96778118610382 425.58740282803774 71.34876481071115 460.793824210763Q96.72974843531847 496.0002455934882 145.56324525550008 516.0003059022129Q194.3967420756817 536.0003662109375 263.29389541596174 536.0003662109375Q328.1511356383562 536.0003662109375 375.72269935905933 517.8139326311648Q423.29426307976246 499.6274990513921 452.9492582269013 466.41338336467743Q482.6042533740401 433.1992676779628 491.24749271571636 387.3185245618224L387.10314021259546 354.4922475665808Q384.2458433136344 382.0235581174493 368.1387295201421 401.45983765646815Q352.03161572664976 420.896117195487 325.2341630719602 430.93966602161527Q298.43671041727066 440.9832148477435 262.4766278937459 440.9832148477435Q216.24689253419638 440.9832148477435 190.1241525299847 424.97155713289976Q164.00141252577305 408.959899418056 164.00141252577305 381.6349492147565Q164.00141252577305 360.2781405970454 180.46558270975947 347.10766964778304Q196.9297528937459 333.93719869852066 226.23913792148232 325.9412260502577Q255.54852294921875 317.9452534019947 293.9135141521692 309.61193896085024Q333.78656005859375 301.6436767578125 371.2588496133685 291.32223365455866Q408.7311391681433 281.0007905513048 438.9137561134994 264.15551394596696Q469.09637305885553 247.3102373406291 486.79879615455866 219.7744707390666Q504.5012192502618 192.2387041375041 504.5012192502618 149.18304201215506Q504.5012192502618 97.28612990677357 476.8622732013464 60.813779316842556Q449.223327152431 24.341428726911545 397.7588510662317 5.500060308724642Q346.29437498003244 -13.341308109462261 274.3018861785531 -13.341308109462261Z"></path></g>
    <g transform="translate(122.17 83.32) scale(0.022 -0.022)"><path d="M254.151793949306 -11.6429443359375Q171.19079444557428 -11.6429443359375 131.97625587135553 32.66689918190241Q92.76171729713678 76.97674269974232 92.76171729713678 171.4855894073844V421.64166405051947H16.134706526994705L18.08715868741274 522.26231893152H69.19864860922098Q98.00036039948463 522.3892759308219 111.82983277365565 531.2939506396651Q125.65930514782667 540.1986253485084 129.0164843350649 563.2144557312131L140.78649757057428 639.3019486665726H213.86688329279423V522.6511240154505H351.9694872647524V418.32409861683846H213.86688329279423V175.95397658646107Q213.86688329279423 138.91448345035315 231.3866603784263 122.06929985061288Q248.9064374640584 105.22411625087261 283.7715463787317 105.22411625087261Q302.69219825416803 105.22411625087261 321.31512281671166 109.72805277630687Q339.9380473792553 114.23198930174112 355.5488935187459 125.18414064496756V5.309327624738216Q325.3106689453125 -4.97637939453125 299.72726295143366 -8.309661865234375Q274.1438569575548 -11.6429443359375 254.151793949306 -11.6429443359375Z"></path></g>
    <g transform="translate(131.93 83.32) scale(0.022 -0.022)"><path d="M244.11125740408897 -13.341308109462261Q154.14276123046875 -13.341308109462261 108.40851096436381 48.19451226294041Q62.67426069825888 109.73033263534307 62.67426069825888 234.555997826159V522.6511240154505H189.67639692872763V249.2310984879732Q189.67639692872763 169.9059884250164 213.59692600741982 131.19976249709725Q237.51745508611202 92.4935365691781 288.025073826313 92.4935365691781Q317.0170104056597 92.4935365691781 339.03669157996774 106.81888204813004Q361.0563727542758 121.14422752708197 377.2268444299698 147.3702966608107Q393.3973161056638 173.59636579453945 402.54795329272747 208.83024549111724Q411.69859047979116 244.06412518769503 413.9762427955866 285.57961843162775V522.6511240154505H539.9942486509681V214.88065883517265L540.0101168230176 0H435.5087086558342L437.96073211729527 164.5234287828207H420.2065856009722Q406.6826641783118 102.43621341884136 383.5477767251432 63.01168532669544Q360.41288927197456 23.587157234549522 326.0121321938932 5.122924562543631Q291.6113751158118 -13.341308109462261 244.11125740408897 -13.341308109462261Z"></path></g>
    <g transform="translate(146.57 83.32) scale(0.022 -0.022)"><path d="M70.6187177374959 0V319.18272083997726L70.60284956544638 522.6511240154505H176.38996329903603L172.96174354851246 362.9454510360956H191.39051116257906Q204.87464299052954 421.5324832946062 228.64450799673796 459.90934075042605Q252.41437300294638 498.2861982062459 288.96200803667307 517.1432822085917Q325.50964307039976 536.0003662109375 374.70806642621756 536.0003662109375Q463.98607478290796 536.0003662109375 510.3949475996196 472.90897308662534Q556.8038204163313 409.8175799623132 556.8038204163313 277.72959583997726V0H429.8096182718873V264.75308856368065Q429.8096182718873 349.7847420796752 404.42479475960135 389.3362170010805Q379.0399712473154 428.8876919224858 329.45288376510143 428.8876919224858Q286.87378849834204 428.8876919224858 257.73121109977365 402.3799743652344Q228.58863370120525 375.8722568079829 213.2634364515543 332.3805948868394Q197.93823920190334 288.88893296569586 196.6367235928774 236.92916578799486V0Z"></path></g>
    <g transform="translate(161.39 83.32) scale(0.022 -0.022)"><path d="M273.6907290518284 -180.37347169965506Q188.6112036332488 -180.37347169965506 134.20233009010553 -167.35360524058342Q79.79345654696226 -154.33373878151178 54.07116626575589 -128.2186262346804Q28.348875984549522 -102.10351368784904 28.348875984549522 -63.61932082474232Q28.348875984549522 -17.6907305046916 64.4838244728744 11.594974335283041Q100.61877296119928 40.88067917525768 172.88854641467333 47.99158199131489V67.68219042569399Q118.5551782026887 67.3568115234375 90.54318624734879 79.43213374912739Q62.53119429200888 91.50745597481728 62.53119429200888 119.53931584209204Q62.53119429200888 147.19807022064924 90.49554830789566 168.0355028398335Q118.45990232378244 188.87293545901775 182.4204644113779 203.0078163743019V222.7301640585065Q121.4600854292512 225.920715816319 87.34488423541188 261.4683225117624Q53.22968304157257 297.0159292072058 53.22968304157257 354.31756833940744Q53.22968304157257 404.65875873714685 81.03922211006284 443.62711031362414Q108.8487611785531 482.59546189010143 163.23779805377126 505.06384325772524Q217.6268349289894 527.532224625349 296.0557885542512 527.532224625349H554.7709796279669V428.45947071909904L391.44541762024164 451.77685595303774V430.4115653857589Q453.11223251372576 420.0465741828084 482.5923079252243 395.1222248375416Q512.0723833367229 370.19787549227476 512.0723833367229 327.27752298116684Q512.0723833367229 285.99187990278006 485.81435987725854 254.49984741210938Q459.5563364177942 223.0078149214387 410.29040648415685 205.50384933128953Q361.02447655051947 187.99988374114037 291.0324673131108 187.99988374114037Q277.86589801311493 187.99988374114037 262.9373643696308 189.17844281718135Q248.0088307261467 190.35700189322233 216.04802595078945 194.35700189322233Q194.5404667928815 179.1348373144865 181.8819572813809 167.50004214048386Q169.2234477698803 155.8652469664812 169.2234477698803 146.22248428314924Q169.2234477698803 137.60358634591103 179.30648973211646 132.48459758237004Q189.38953169435263 127.36560881882906 205.11933244764805 125.22672307863832Q220.84913320094347 123.08783733844757 235.8171512633562 123.08783733844757H374.95329067111015Q394.9215557798743 123.08783733844757 426.40574719011784 119.94104657694697Q457.88993860036135 116.79425581544638 489.3899981826544 103.82202584296465Q520.8900577649474 90.84979587048292 542.5488390289247 62.70688059926033Q564.207620292902 34.56396532803774 564.207620292902 -16.087035164237022Q564.207620292902 -72.72210935503244 531.7432953417301 -109.36911156028509Q499.27897039055824 -146.01611376553774 434.81843300908804 -163.1947927325964Q370.35789562761784 -180.37347169965506 273.6907290518284 -180.37347169965506ZM284.9929669126868 -78.46715485304594Q347.23869251459837 -78.46715485304594 384.09950014576316 -71.3203967884183Q420.96030777692795 -64.17363872379065 436.91645304858685 -48.5944170281291Q452.87259832024574 -33.015195332467556 452.87259832024574 -9.197937980294228Q452.87259832024574 12.706603035330772 442.7140575647354 25.146971687674522Q432.5555168092251 37.58734034001827 417.0597570575774 42.57141040638089Q401.56399730592966 47.55548047274351 385.71902732923627 48.71420215442777Q369.8740573525429 49.87292383611202 358.8187033087015 49.87292383611202H235.92948696017265Q188.4142262339592 43.3336748406291 168.8429095596075 23.34173244982958Q149.2715928852558 3.349790059030056 149.2715928852558 -21.483515664935112Q149.2715928852558 -45.03881303220987 165.26738388091326 -57.29268779605627Q181.2631748765707 -69.54656255990267 211.70342218503356 -74.0068587064743Q242.14366949349642 -78.46715485304594 284.9929669126868 -78.46715485304594ZM287.658997066319 257.4608251154423Q340.4203481525183 257.4608251154423 367.2097126804292 281.93692694604397Q393.99907720834017 306.41302877664566 393.99907720834017 346.0952787846327Q393.99907720834017 388.71405174583197 366.6978115513921 416.15832567960024Q339.396545894444 443.6025996133685 286.6353139728308 443.6025996133685Q234.5089135542512 443.6025996133685 206.22351679578424 416.80114939808846Q177.93812003731728 389.9996991828084 177.93812003731728 348.0713544562459Q177.93812003731728 321.4128456711769 190.5927199088037 300.9248710498214Q203.24731978029013 280.43689642846584 227.69147019088268 268.94886077195406Q252.13562060147524 257.4608251154423 287.658997066319 257.4608251154423Z"></path></g>
    <g transform="translate(175.68 83.32) scale(0.022 -0.022)"><path d="M307.40527053177357 -13.341308109462261Q243.63530525565147 -13.341308109462261 194.32561359927058 4.714205786585808Q145.0159219428897 22.769719682633877 110.92449466884136 57.15064227208495Q76.83306739479303 91.53156486153603 59.07501487061381 140.67844427004457Q41.31696234643459 189.8253236785531 41.31696234643459 252.0159887894988Q41.31696234643459 313.89702981710434 58.58688838779926 365.87725418433547Q75.85681442916393 417.8574785515666 108.78949023038149 456.05193777009845Q141.72216603159904 494.2463969886303 189.52788991853595 515.1233815997839Q237.33361380547285 536.0003662109375 297.7543921098113 536.0003662109375Q354.8579087033868 536.0003662109375 400.02874586358666 517.1113881915808Q445.19958302378654 498.22241017222404 475.9774446040392 460.53576296940446Q506.75530618429184 422.8491157665849 521.6481865793467 367.42437114566565Q536.5410669744015 311.9996265247464 532.4457881897688 238.92015778273344L122.91370016336441 235.84081256389618V308.88909427821636L458.91305784881115 311.9446357861161L414.8248194158077 271.2145807221532Q420.7772744819522 327.66661435365677 406.0472041554749 364.1107705757022Q391.3171338289976 400.5549267977476 362.9125637486577 418.2412383072078Q334.5079936683178 435.92754981666803 298.73064798116684 435.92754981666803Q258.0087856724858 435.92754981666803 227.25106738880277 414.4197683185339Q196.4933491051197 392.91198682039976 179.59265596792102 352.4400329589844Q162.69196283072233 311.968079097569 162.69196283072233 254.1033320352435Q162.69196283072233 167.09570457786322 201.2513434998691 124.24685911089182Q239.81072416901588 81.39801364392042 307.4528169184923 81.39801364392042Q336.84154208004475 81.39801364392042 357.5159771665931 88.9376818947494Q378.1904122531414 96.47735014557838 392.1545540988445 108.88997347652912Q406.11869594454765 121.30259680747986 414.693984746933 137.3857862725854Q423.2692735493183 153.46897573769093 428.1184576153755 170.54808408021927L538.2869160994887 145.9682578444481Q529.5408838689327 109.27777438610792 511.5249873585999 79.9603019580245Q493.5090908482671 50.64282952994108 465.04077124223113 29.79361567273736Q436.5724516361952 8.944401815533638 397.6199369877577 -2.1984531469643116Q358.6674223393202 -13.341308109462261 307.40527053177357 -13.341308109462261Z"></path></g>
    <g transform="translate(189.55 83.32) scale(0.022 -0.022)"><path d="M70.6187177374959 0V319.18272083997726L70.60284956544638 522.6511240154505H176.38996329903603L172.96174354851246 362.9454510360956H191.39051116257906Q204.87464299052954 421.5324832946062 228.64450799673796 459.90934075042605Q252.41437300294638 498.2861982062459 288.96200803667307 517.1432822085917Q325.50964307039976 536.0003662109375 374.70806642621756 536.0003662109375Q463.98607478290796 536.0003662109375 510.3949475996196 472.90897308662534Q556.8038204163313 409.8175799623132 556.8038204163313 277.72959583997726V0H429.8096182718873V264.75308856368065Q429.8096182718873 349.7847420796752 404.42479475960135 389.3362170010805Q379.0399712473154 428.8876919224858 329.45288376510143 428.8876919224858Q286.87378849834204 428.8876919224858 257.73121109977365 402.3799743652344Q228.58863370120525 375.8722568079829 213.2634364515543 332.3805948868394Q197.93823920190334 288.88893296569586 196.6367235928774 236.92916578799486V0Z"></path></g>
  </g>
  <path d="M153.5375344585776 6.0 L157.9 12.6 L164.5 17 L157.9 21.4 L153.5375344585776 28.0 L149.1 21.4 L142.5 17 L149.1 12.6 Z" fill="#14b8a6"></path>
</svg>