<svg xmlns="http://www.w3.org/2000/svg" viewBox="0 0 122.9 50.2" width="123" height="50">
  <g fill="#1a1a17">
    <g transform="translate(0.00 46.20) scale(0.06 -0.06)"><path d="M65.26264445111156 0V660H282.1167544424534L456.64238484576344 164.3067438043654H460.7852681465447L632.3347923606634 660H839.1414809413254V0H703.0958077535033L709.6434340663254 514.0259690061212H701.2148713581264L511.7847609743476 0H388.2147115059197L201.7607523612678 514.1926560178399H193.33218965306878L199.7607523612678 0Z"></path></g>
    <g transform="translate(53.04 46.20) scale(0.06 -0.06)"><path d="M65.26264445111156 0V660H332.09453328326344Q383.2135736346245 660 426.0230632927269 651.82142566517Q468.83255295082927 643.6428513303399 502.3087041899562 627.6190381739289Q535.7848554290831 611.5952250175178 559.3443261962384 588.2499861959368Q582.9037969633937 564.9047473743558 595.0347239132971 534.1190418079495Q607.1656508632004 503.3333362415433 607.1656508632004 465.5238429494202Q607.1656508632004 431.8095354363322 596.4870939664543 403.6785459984094Q585.8085370697081 375.54755656048656 563.725254599005 354.02372887171805Q541.6419721283019 332.49990118294954 507.97538030333817 318.8808441180736Q474.3087884783745 305.2617870531976 428.61842418834567 299.5713442862034V287.04753766953945Q482.64161609113216 282.0951581709087 514.1295500211418 262.940553214401Q545.6174839511514 243.78594825789332 563.3199295718223 211.91699291951954Q581.0223751924932 180.04803758114576 593.2843569740653 135.47641864046454L631.1178152859211 0H472.0726332850754L443.2629467137158 125.04775275290012Q434.8105061799288 163.7859468087554 418.8341216985136 186.75037856958807Q402.8577372170985 209.71481033042073 377.1193869393319 219.8339792918414Q351.3810366615653 229.95314825326204 312.42840430513024 229.95314825326204H209.16527739167213V0ZM209.16527739167213 339.33267502859235H320.14233979582787Q386.47658429667354 339.33267502859235 422.1198526993394 364.57104928418994Q457.76312110200524 389.80942353978753 457.76312110200524 442.7147507444024Q457.76312110200524 496.04861595481634 424.6198316272348 521.8226812444627Q391.4765421524644 547.5967465341091 323.7137087844312 547.5967465341091H209.16527739167213Z"></path></g>
  </g>
  <path d="M109.90706891715526 0.0 L114.3 6.6 L120.9 11 L114.3 15.4 L109.90706891715526 22.0 L105.5 15.4 L98.9 11 L105.5 6.6 Z" fill="#14b8a6"></path>
</svg>